# Blender v2.79 (sub 0) OBJ File: 'Druppel.blend'
# www.blender.org
mtllib Druppel.mtl
o Druppel
v -0.002989 -0.595979 -0.001238
v 0.021927 1.323562 -0.110233
v 0.059949 0.827248 -0.304056
v 0.110204 0.410719 -0.569777
v 0.130146 0.116088 -0.669871
v 0.125732 -0.155733 -0.648360
v 0.095530 -0.386806 -0.496523
v 0.050329 -0.541617 -0.269284
v 0.043011 1.323562 -0.103837
v 0.118066 0.827248 -0.286426
v 0.218955 0.410719 -0.536787
v 0.258045 0.116088 -0.631074
v 0.249506 -0.155733 -0.610813
v 0.190262 -0.386806 -0.467787
v 0.101598 -0.541617 -0.253732
v 0.062442 1.323562 -0.093451
v 0.171627 0.827248 -0.257797
v 0.319181 0.410719 -0.483216
v 0.375916 0.116088 -0.568070
v 0.363576 -0.155733 -0.549841
v 0.277568 -0.386806 -0.421121
v 0.148848 -0.541617 -0.228477
v 0.079474 1.323562 -0.079473
v 0.218574 0.827248 -0.219269
v 0.407029 0.410719 -0.411120
v 0.479232 0.116088 -0.483281
v 0.463560 -0.155733 -0.467787
v 0.354092 -0.386806 -0.358319
v 0.190262 -0.541617 -0.194489
v 0.093451 1.323562 -0.062442
v 0.257102 0.827248 -0.172322
v 0.479125 0.410719 -0.323272
v 0.572432 0.120881 -0.385269
v 0.545615 -0.155733 -0.367803
v 0.416894 -0.386806 -0.281795
v 0.224250 -0.541617 -0.153074
v 0.103838 1.323562 -0.043011
v 0.285731 0.827248 -0.118761
v 0.532696 0.410719 -0.223046
v 0.636338 0.120881 -0.265710
v 0.606587 -0.155733 -0.253732
v 0.463560 -0.386806 -0.194489
v 0.249506 -0.541617 -0.105824
v 0.110233 1.323562 -0.021926
v 0.303361 0.827248 -0.060643
v 0.565686 0.410719 -0.114295
v 0.675691 0.120881 -0.135980
v 0.644133 -0.155733 -0.129958
v 0.492297 -0.386806 -0.099756
v 0.265058 -0.541617 -0.054555
v 0.112393 1.323562 0.000000
v 0.309314 0.827248 -0.000203
v 0.576825 0.410719 -0.001198
v 0.688979 0.120881 -0.001065
v 0.656811 -0.155733 -0.001238
v 0.502000 -0.386806 -0.001238
v 0.270309 -0.541617 -0.001238
v 0.110233 1.323562 0.021927
v 0.303361 0.827248 0.060237
v 0.565686 0.410719 0.111899
v 0.675691 0.120881 0.133850
v 0.644133 -0.155733 0.127483
v 0.492297 -0.386806 0.097281
v 0.265058 -0.541617 0.052080
v 0.103838 1.323563 0.043011
v 0.285731 0.827248 0.118354
v 0.532696 0.410719 0.220650
v 0.636338 0.120881 0.263580
v 0.606587 -0.155733 0.251257
v 0.463560 -0.386806 0.192013
v 0.249506 -0.541617 0.103349
v 0.093451 1.323563 0.062442
v 0.257102 0.827248 0.171915
v 0.479125 0.410719 0.320876
v 0.572431 0.120881 0.383140
v 0.545615 -0.155733 0.365327
v 0.416894 -0.386806 0.279319
v 0.224250 -0.541617 0.150599
v 0.079474 1.323563 0.079474
v 0.218574 0.827249 0.218862
v 0.407029 0.410719 0.408724
v 0.486428 0.120881 0.487935
v 0.463560 -0.155733 0.465311
v 0.354092 -0.386806 0.355843
v 0.190262 -0.541617 0.192013
v 0.062442 1.323563 0.093452
v 0.171627 0.827249 0.257390
v 0.319181 0.410719 0.480820
v 0.381633 0.120881 0.573938
v 0.363576 -0.155733 0.547366
v 0.277568 -0.386806 0.418645
v 0.148848 -0.541617 0.226001
v 0.043011 1.323563 0.103838
v 0.118066 0.827249 0.286019
v 0.218955 0.410719 0.534391
v 0.262073 0.120881 0.637844
v 0.249506 -0.155733 0.608338
v 0.190262 -0.386806 0.465311
v 0.101598 -0.541617 0.251257
v 0.021927 1.323563 0.110234
v 0.059949 0.827249 0.303649
v 0.110204 0.410719 0.567380
v 0.132343 0.120881 0.677197
v 0.125732 -0.155733 0.645884
v 0.095530 -0.386806 0.494048
v 0.050329 -0.541617 0.266809
v 0.000000 1.323563 0.112393
v -0.000491 0.827249 0.309602
v -0.002893 0.410719 0.578520
v -0.002864 0.116088 0.680600
v -0.002989 -0.155733 0.658562
v -0.002989 -0.386806 0.503751
v -0.002989 -0.541617 0.272060
v -0.021927 1.323563 0.110234
v -0.060931 0.827249 0.303649
v -0.115990 0.410719 0.567380
v -0.135873 0.116088 0.667499
v -0.131709 -0.155733 0.645884
v -0.101507 -0.386806 0.494048
v -0.056306 -0.541617 0.266809
v -0.000000 1.706430 0.000001
v -0.043011 1.323563 0.103838
v -0.119049 0.827248 0.286019
v -0.224741 0.410719 0.534391
v -0.263772 0.116088 0.628702
v -0.255483 -0.155733 0.608338
v -0.196240 -0.386806 0.465311
v -0.107575 -0.541617 0.251257
v -0.062442 1.323563 0.093452
v -0.172610 0.827248 0.257390
v -0.324967 0.410719 0.480820
v -0.381643 0.116088 0.565698
v -0.369554 -0.155733 0.547366
v -0.283545 -0.386806 0.418645
v -0.154825 -0.541617 0.226001
v -0.079474 1.323563 0.079474
v -0.219557 0.827248 0.218862
v -0.412815 0.410719 0.408724
v -0.484959 0.116088 0.480909
v -0.469537 -0.155733 0.465311
v -0.360070 -0.386806 0.355843
v -0.196240 -0.541617 0.192013
v -0.093451 1.323563 0.062442
v -0.258085 0.827248 0.171915
v -0.484910 0.410719 0.320876
v -0.569747 0.116088 0.377594
v -0.551592 -0.155733 0.365327
v -0.422872 -0.386806 0.279319
v -0.230228 -0.541617 0.150598
v -0.103837 1.323563 0.043011
v -0.286714 0.827248 0.118354
v -0.538482 0.410719 0.220650
v -0.632751 0.116088 0.259722
v -0.612564 -0.155733 0.251257
v -0.469538 -0.386806 0.192013
v -0.255483 -0.541617 0.103349
v -0.110233 1.323563 0.021927
v -0.304344 0.827248 0.060237
v -0.571471 0.410719 0.111899
v -0.671549 0.116088 0.131824
v -0.650111 -0.155733 0.127483
v -0.498274 -0.386806 0.097281
v -0.271035 -0.541617 0.052080
v -0.112393 1.323563 0.000000
v -0.310297 0.827248 -0.000203
v -0.582610 0.410719 -0.001198
v -0.684649 0.116088 -0.001186
v -0.662788 -0.155733 -0.001238
v -0.507977 -0.386806 -0.001238
v -0.276287 -0.541617 -0.001238
v -0.110233 1.323563 -0.021926
v -0.304344 0.827248 -0.060643
v -0.571471 0.410719 -0.114295
v -0.671549 0.116088 -0.134196
v -0.650110 -0.155733 -0.129958
v -0.498274 -0.386806 -0.099756
v -0.271035 -0.541617 -0.054555
v -0.103837 1.323563 -0.043011
v -0.286714 0.827248 -0.118761
v -0.538482 0.410719 -0.223046
v -0.632751 0.116088 -0.262094
v -0.612564 -0.155733 -0.253732
v -0.469537 -0.386806 -0.194489
v -0.255483 -0.541617 -0.105824
v -0.093451 1.323563 -0.062442
v -0.258085 0.827248 -0.172322
v -0.484910 0.410719 -0.323272
v -0.569747 0.116088 -0.379966
v -0.551592 -0.155733 -0.367803
v -0.422872 -0.386806 -0.281794
v -0.230228 -0.541617 -0.153074
v -0.079474 1.323563 -0.079473
v -0.219557 0.827248 -0.219269
v -0.412815 0.410719 -0.411120
v -0.484958 0.116088 -0.483281
v -0.469537 -0.155733 -0.467786
v -0.360070 -0.386806 -0.358319
v -0.196239 -0.541617 -0.194488
v -0.062442 1.323563 -0.093451
v -0.172610 0.827248 -0.257797
v -0.324967 0.410719 -0.483216
v -0.381643 0.116088 -0.568070
v -0.369554 -0.155733 -0.549841
v -0.283545 -0.386806 -0.421121
v -0.154825 -0.541617 -0.228477
v -0.043011 1.323563 -0.103837
v -0.119049 0.827248 -0.286426
v -0.224741 0.410719 -0.536787
v -0.263771 0.116088 -0.631073
v -0.255483 -0.155733 -0.610813
v -0.196239 -0.386806 -0.467786
v -0.107575 -0.541617 -0.253732
v -0.021927 1.323563 -0.110233
v -0.060931 0.827248 -0.304056
v -0.115990 0.410719 -0.569776
v -0.135873 0.116088 -0.669871
v -0.131709 -0.155733 -0.648359
v -0.101507 -0.386806 -0.496523
v -0.056306 -0.541617 -0.269284
v 0.000000 1.323563 -0.112392
v -0.000491 0.827248 -0.310008
v -0.002893 0.410719 -0.580916
v -0.002863 0.116088 -0.682971
v -0.002989 -0.155733 -0.661037
v -0.002989 -0.386806 -0.506226
v -0.002989 -0.541617 -0.274536
vn 0.0767 -0.9195 -0.3854
vn 0.1390 -0.7015 -0.6989
vn 0.2727 -0.7015 -0.6584
vn 0.1504 -0.9195 -0.3630
vn 0.1936 0.1245 -0.9731
vn 0.1754 0.4362 -0.8826
vn 0.3443 0.4358 -0.8315
vn 0.3797 0.1245 -0.9167
vn 0.1845 -0.3244 -0.9277
vn 0.3619 -0.3244 -0.8739
vn 0.5000 0.4354 -0.7486
vn 0.5513 0.1244 -0.8250
vn 0.0000 -1.0000 0.0000
vn 0.2183 -0.9195 -0.3267
vn 0.3617 0.3269 -0.8731
vn 0.0000 1.0000 0.0000
vn 0.5251 0.3268 -0.7858
vn 0.5255 -0.3245 -0.7865
vn 0.4931 0.4610 -0.7378
vn 0.3396 0.4614 -0.8196
vn 0.3959 -0.7015 -0.5925
vn 0.6612 -0.3284 -0.6745
vn 0.5039 -0.7015 -0.5039
vn 0.6683 0.3267 -0.6683
vn 0.6277 0.4605 -0.6276
vn 0.6272 0.4387 -0.6436
vn 0.2779 -0.9195 -0.2779
vn 0.6875 0.1223 -0.7158
vn 0.3267 -0.9195 -0.2183
vn 0.7371 0.4473 -0.5065
vn 0.8136 0.1266 -0.5674
vn 0.7859 0.3266 -0.5251
vn 0.7776 -0.3370 -0.5308
vn 0.7383 0.4601 -0.4932
vn 0.5925 -0.7015 -0.3959
vn 0.8732 0.3265 -0.3617
vn 0.8205 0.4597 -0.3398
vn 0.8685 -0.3409 -0.3598
vn 0.6584 -0.7015 -0.2727
vn 0.8246 0.4507 -0.3417
vn 0.3630 -0.9195 -0.1504
vn 0.9167 0.1246 -0.3796
vn 0.8756 0.4505 -0.1742
vn 0.9731 0.1245 -0.1935
vn 0.9270 0.3265 -0.1844
vn 0.3854 -0.9195 -0.0767
vn 0.9220 -0.3410 -0.1834
vn 0.8712 0.4594 -0.1732
vn 0.6989 -0.7015 -0.1390
vn 0.9400 -0.3410 0.0000
vn 0.7126 -0.7015 0.0000
vn 0.8883 0.4592 0.0000
vn 0.8928 0.4504 -0.0001
vn 0.3930 -0.9195 0.0000
vn 0.9922 0.1245 0.0000
vn 0.9452 0.3265 0.0000
vn 0.3854 -0.9195 0.0767
vn 0.9731 0.1245 0.1936
vn 0.9219 -0.3411 0.1834
vn 0.9270 0.3264 0.1844
vn 0.8713 0.4590 0.1733
vn 0.6989 -0.7015 0.1390
vn 0.8757 0.4503 0.1741
vn 0.6584 -0.7015 0.2727
vn 0.3630 -0.9195 0.1504
vn 0.8208 0.4590 0.3400
vn 0.8249 0.4503 0.3417
vn 0.9167 0.1245 0.3797
vn 0.8733 0.3264 0.3617
vn 0.8684 -0.3411 0.3597
vn 0.7859 0.3264 0.5251
vn 0.8250 0.1245 0.5512
vn 0.7816 -0.3411 0.5222
vn 0.7387 0.4590 0.4935
vn 0.5925 -0.7015 0.3959
vn 0.7424 0.4503 0.4960
vn 0.3267 -0.9195 0.2183
vn 0.6282 0.4592 0.6281
vn 0.6312 0.4504 0.6313
vn 0.5039 -0.7015 0.5039
vn 0.2779 -0.9195 0.2779
vn 0.7016 0.1245 0.7016
vn 0.6684 0.3265 0.6683
vn 0.6647 -0.3410 0.6647
vn 0.5513 0.1245 0.8249
vn 0.5222 -0.3410 0.7816
vn 0.5251 0.3265 0.7859
vn 0.4935 0.4594 0.7385
vn 0.3959 -0.7015 0.5925
vn 0.4959 0.4505 0.7423
vn 0.2183 -0.9195 0.3267
vn 0.2727 -0.7015 0.6584
vn 0.1504 -0.9195 0.3630
vn 0.3415 0.4507 0.8247
vn 0.3797 0.1246 0.9167
vn 0.3617 0.3265 0.8732
vn 0.3597 -0.3409 0.8685
vn 0.3399 0.4597 0.8204
vn 0.1844 0.3266 0.9270
vn 0.1733 0.4601 0.8708
vn 0.1744 -0.3370 0.9252
vn 0.1390 -0.7015 0.6989
vn 0.1631 0.4473 0.8794
vn 0.0767 -0.9195 0.3854
vn 0.1741 0.1266 0.9765
vn -0.0116 0.4387 0.8985
vn -0.0200 0.1223 0.9923
vn 0.0000 -0.9195 0.3930
vn 0.0000 0.3267 0.9451
vn -0.0093 -0.3284 0.9445
vn 0.0001 0.4605 0.8876
vn 0.0000 -0.7015 0.7126
vn -0.1845 -0.3245 0.9277
vn -0.1390 -0.7015 0.6989
vn -0.1843 0.3268 0.9269
vn -0.1730 0.4610 0.8704
vn -0.1757 0.4354 0.8829
vn -0.0767 -0.9195 0.3854
vn -0.1935 0.1244 0.9731
vn -0.1504 -0.9195 0.3630
vn -0.3445 0.4358 0.8314
vn -0.3797 0.1245 0.9167
vn -0.3616 0.3269 0.8731
vn -0.3620 -0.3244 0.8739
vn -0.3394 0.4614 0.8197
vn -0.2727 -0.7015 0.6584
vn -0.5255 -0.3244 0.7865
vn -0.3959 -0.7015 0.5925
vn -0.4926 0.4619 0.7375
vn -0.5000 0.4362 0.7481
vn -0.2183 -0.9195 0.3267
vn -0.5512 0.1245 0.8250
vn -0.5250 0.3269 0.7858
vn -0.6682 0.3270 0.6682
vn -0.2779 -0.9195 0.2779
vn -0.7016 0.1245 0.7016
vn -0.6689 -0.3244 0.6688
vn -0.6269 0.4623 0.6271
vn -0.5039 -0.7015 0.5039
vn -0.6362 0.4365 0.6361
vn -0.7370 0.4628 0.4926
vn -0.7480 0.4368 0.4996
vn -0.5925 -0.7015 0.3959
vn -0.3267 -0.9195 0.2183
vn -0.8250 0.1246 0.5512
vn -0.7857 0.3271 0.5250
vn -0.7865 -0.3243 0.5255
vn -0.9167 0.1246 0.3797
vn -0.8740 -0.3243 0.3620
vn -0.8730 0.3272 0.3616
vn -0.8188 0.4631 0.3392
vn -0.6584 -0.7015 0.2727
vn -0.8310 0.4371 0.3441
vn -0.3630 -0.9195 0.1504
vn -0.6989 -0.7015 0.1390
vn -0.3854 -0.9195 0.0767
vn -0.8691 0.4634 0.1729
vn -0.8820 0.4374 0.1754
vn -0.9731 0.1246 0.1935
vn -0.9268 0.3272 0.1844
vn -0.9278 -0.3242 0.1845
vn -0.9449 0.3273 0.0000
vn -0.9922 0.1246 0.0000
vn -0.9460 -0.3242 0.0000
vn -0.8860 0.4636 0.0000
vn -0.7126 -0.7015 0.0000
vn -0.8992 0.4375 -0.0000
vn -0.3930 -0.9195 0.0000
vn -0.8689 0.4638 -0.1728
vn -0.8818 0.4376 -0.1754
vn -0.6989 -0.7015 -0.1390
vn -0.3854 -0.9195 -0.0767
vn -0.9731 0.1247 -0.1935
vn -0.9268 0.3273 -0.1843
vn -0.9278 -0.3242 -0.1845
vn -0.9167 0.1247 -0.3797
vn -0.8740 -0.3242 -0.3620
vn -0.8730 0.3273 -0.3616
vn -0.8185 0.4638 -0.3390
vn -0.6584 -0.7015 -0.2727
vn -0.8307 0.4377 -0.3441
vn -0.3630 -0.9195 -0.1504
vn -0.5925 -0.7015 -0.3959
vn -0.3267 -0.9195 -0.2183
vn -0.7476 0.4376 -0.4995
vn -0.8250 0.1247 -0.5512
vn -0.7856 0.3273 -0.5249
vn -0.7866 -0.3242 -0.5255
vn -0.7366 0.4638 -0.4922
vn -0.6689 -0.3242 -0.6689
vn -0.5039 -0.7015 -0.5039
vn -0.6681 0.3273 -0.6681
vn -0.6265 0.4636 -0.6265
vn -0.6359 0.4375 -0.6358
vn -0.2779 -0.9195 -0.2779
vn -0.7016 0.1246 -0.7016
vn -0.2183 -0.9195 -0.3267
vn -0.4996 0.4374 -0.7477
vn -0.5512 0.1246 -0.8250
vn -0.5249 0.3272 -0.7857
vn -0.5256 -0.3242 -0.7865
vn -0.4922 0.4634 -0.7368
vn -0.3959 -0.7015 -0.5925
vn -0.3616 0.3272 -0.8730
vn -0.3391 0.4631 -0.8188
vn -0.3620 -0.3243 -0.8739
vn -0.2727 -0.7015 -0.6584
vn -0.3442 0.4371 -0.8309
vn -0.1504 -0.9195 -0.3630
vn -0.3797 0.1246 -0.9167
vn -0.1756 0.4368 -0.8822
vn -0.1935 0.1246 -0.9731
vn -0.1843 0.3271 -0.9268
vn -0.0767 -0.9195 -0.3854
vn -0.1845 -0.3243 -0.9278
vn -0.1728 0.4628 -0.8694
vn -0.1390 -0.7015 -0.6989
vn 0.0000 -0.3244 -0.9459
vn 0.0000 -0.7015 -0.7126
vn 0.0001 0.4623 -0.8867
vn -0.0001 0.4365 -0.8997
vn 0.0000 -0.9195 -0.3930
vn 0.0000 0.1245 -0.9922
vn 0.0000 0.3270 -0.9450
vn 0.1844 0.3269 -0.9268
vn 0.1731 0.4619 -0.8698
usemtl None
s 1
f 8//1 7//2 14//3 15//4
f 5//5 4//6 11//7 12//8
f 6//9 5//5 12//8 13//10
f 7//2 6//9 13//10 14//3
f 12//8 11//7 18//11 19//12
f 1//13 15//4 22//14
f 9//15 121//16 16//17
f 13//10 12//8 19//12 20//18
f 9//15 16//17 17//19 10//20
f 14//3 13//10 20//18 21//21
f 11//7 10//20 17//19 18//11
f 15//4 14//3 21//21 22//14
f 21//21 20//18 27//22 28//23
f 17//19 16//17 23//24 24//25
f 18//11 17//19 24//25 25//26
f 22//14 21//21 28//23 29//27
f 18//11 25//26 26//28 19//12
f 1//13 22//14 29//27
f 16//17 121//16 23//24
f 20//18 19//12 26//28 27//22
f 1//13 29//27 36//29
f 26//28 25//26 32//30 33//31
f 23//24 121//16 30//32
f 27//22 26//28 33//31 34//33
f 23//24 30//32 31//34 24//25
f 27//22 34//33 35//35 28//23
f 25//26 24//25 31//34 32//30
f 29//27 28//23 35//35 36//29
f 31//34 30//32 37//36 38//37
f 35//35 34//33 41//38 42//39
f 32//30 31//34 38//37 39//40
f 36//29 35//35 42//39 43//41
f 32//30 39//40 40//42 33//31
f 36//29 43//41 1//13
f 30//32 121//16 37//36
f 34//33 33//31 40//42 41//38
f 40//42 39//40 46//43 47//44
f 37//36 121//16 44//45
f 1//13 43//41 50//46
f 41//38 40//42 47//44 48//47
f 38//37 37//36 44//45 45//48
f 41//38 48//47 49//49 42//39
f 39//40 38//37 45//48 46//43
f 43//41 42//39 49//49 50//46
f 49//49 48//47 55//50 56//51
f 46//43 45//48 52//52 53//53
f 50//46 49//49 56//51 57//54
f 47//44 46//43 53//53 54//55
f 50//46 57//54 1//13
f 44//45 121//16 51//56
f 48//47 47//44 54//55 55//50
f 45//48 44//45 51//56 52//52
f 1//13 57//54 64//57
f 55//50 54//55 61//58 62//59
f 51//56 121//16 58//60
f 52//52 51//56 58//60 59//61
f 56//51 55//50 62//59 63//62
f 52//52 59//61 60//63 53//53
f 57//54 56//51 63//62 64//57
f 54//55 53//53 60//63 61//58
f 64//57 63//62 70//64 71//65
f 60//63 59//61 66//66 67//67
f 61//58 60//63 67//67 68//68
f 1//13 64//57 71//65
f 58//60 121//16 65//69
f 61//58 68//68 69//70 62//59
f 59//61 58//60 65//69 66//66
f 63//62 62//59 69//70 70//64
f 65//69 121//16 72//71
f 69//70 68//68 75//72 76//73
f 66//66 65//69 72//71 73//74
f 70//64 69//70 76//73 77//75
f 66//66 73//74 74//76 67//67
f 70//64 77//75 78//77 71//65
f 68//68 67//67 74//76 75//72
f 1//13 71//65 78//77
f 74//76 73//74 80//78 81//79
f 78//77 77//75 84//80 85//81
f 75//72 74//76 81//79 82//82
f 1//13 78//77 85//81
f 72//71 121//16 79//83
f 75//72 82//82 83//84 76//73
f 73//74 72//71 79//83 80//78
f 77//75 76//73 83//84 84//80
f 83//84 82//82 89//85 90//86
f 80//78 79//83 86//87 87//88
f 84//80 83//84 90//86 91//89
f 81//79 80//78 87//88 88//90
f 84//80 91//89 92//91 85//81
f 82//82 81//79 88//90 89//85
f 1//13 85//81 92//91
f 79//83 121//16 86//87
f 92//91 91//89 98//92 99//93
f 89//85 88//90 95//94 96//95
f 1//13 92//91 99//93
f 86//87 121//16 93//96
f 90//86 89//85 96//95 97//97
f 87//88 86//87 93//96 94//98
f 91//89 90//86 97//97 98//92
f 88//90 87//88 94//98 95//94
f 94//98 93//96 100//99 101//100
f 98//92 97//97 104//101 105//102
f 95//94 94//98 101//100 102//103
f 99//93 98//92 105//102 106//104
f 96//95 95//94 102//103 103//105
f 1//13 99//93 106//104
f 93//96 121//16 100//99
f 97//97 96//95 103//105 104//101
f 103//105 102//103 109//106 110//107
f 1//13 106//104 113//108
f 100//99 121//16 107//109
f 104//101 103//105 110//107 111//110
f 100//99 107//109 108//111 101//100
f 105//102 104//101 111//110 112//112
f 102//103 101//100 108//111 109//106
f 106//104 105//102 112//112 113//108
f 112//112 111//110 118//113 119//114
f 108//111 107//109 114//115 115//116
f 109//106 108//111 115//116 116//117
f 113//108 112//112 119//114 120//118
f 109//106 116//117 117//119 110//107
f 1//13 113//108 120//118
f 107//109 121//16 114//115
f 111//110 110//107 117//119 118//113
f 1//13 120//118 128//120
f 117//119 116//117 124//121 125//122
f 114//115 121//16 122//123
f 118//113 117//119 125//122 126//124
f 115//116 114//115 122//123 123//125
f 118//113 126//124 127//126 119//114
f 116//117 115//116 123//125 124//121
f 120//118 119//114 127//126 128//120
f 127//126 126//124 133//127 134//128
f 124//121 123//125 130//129 131//130
f 128//120 127//126 134//128 135//131
f 125//122 124//121 131//130 132//132
f 128//120 135//131 1//13
f 122//123 121//16 129//133
f 126//124 125//122 132//132 133//127
f 123//125 122//123 129//133 130//129
f 129//133 121//16 136//134
f 1//13 135//131 142//135
f 133//127 132//132 139//136 140//137
f 130//129 129//133 136//134 137//138
f 134//128 133//127 140//137 141//139
f 131//130 130//129 137//138 138//140
f 135//131 134//128 141//139 142//135
f 132//132 131//130 138//140 139//136
f 138//140 137//138 144//141 145//142
f 142//135 141//139 148//143 149//144
f 139//136 138//140 145//142 146//145
f 1//13 142//135 149//144
f 136//134 121//16 143//146
f 140//137 139//136 146//145 147//147
f 137//138 136//134 143//146 144//141
f 141//139 140//137 147//147 148//143
f 147//147 146//145 153//148 154//149
f 143//146 121//16 150//150
f 144//141 143//146 150//150 151//151
f 148//143 147//147 154//149 155//152
f 144//141 151//151 152//153 145//142
f 149//144 148//143 155//152 156//154
f 146//145 145//142 152//153 153//148
f 1//13 149//144 156//154
f 156//154 155//152 162//155 163//156
f 152//153 151//151 158//157 159//158
f 153//148 152//153 159//158 160//159
f 1//13 156//154 163//156
f 150//150 121//16 157//160
f 153//148 160//159 161//161 154//149
f 151//151 150//150 157//160 158//157
f 155//152 154//149 161//161 162//155
f 157//160 121//16 164//162
f 161//161 160//159 167//163 168//164
f 158//157 157//160 164//162 165//165
f 162//155 161//161 168//164 169//166
f 158//157 165//165 166//167 159//158
f 162//155 169//166 170//168 163//156
f 160//159 159//158 166//167 167//163
f 1//13 163//156 170//168
f 166//167 165//165 172//169 173//170
f 170//168 169//166 176//171 177//172
f 167//163 166//167 173//170 174//173
f 1//13 170//168 177//172
f 164//162 121//16 171//174
f 167//163 174//173 175//175 168//164
f 165//165 164//162 171//174 172//169
f 169//166 168//164 175//175 176//171
f 175//175 174//173 181//176 182//177
f 172//169 171//174 178//178 179//179
f 176//171 175//175 182//177 183//180
f 173//170 172//169 179//179 180//181
f 176//171 183//180 184//182 177//172
f 174//173 173//170 180//181 181//176
f 1//13 177//172 184//182
f 171//174 121//16 178//178
f 184//182 183//180 190//183 191//184
f 181//176 180//181 187//185 188//186
f 1//13 184//182 191//184
f 178//178 121//16 185//187
f 182//177 181//176 188//186 189//188
f 178//178 185//187 186//189 179//179
f 183//180 182//177 189//188 190//183
f 180//181 179//179 186//189 187//185
f 190//183 189//188 196//190 197//191
f 186//189 185//187 192//192 193//193
f 187//185 186//189 193//193 194//194
f 191//184 190//183 197//191 198//195
f 187//185 194//194 195//196 188//186
f 1//13 191//184 198//195
f 185//187 121//16 192//192
f 189//188 188//186 195//196 196//190
f 1//13 198//195 205//197
f 195//196 194//194 201//198 202//199
f 192//192 121//16 199//200
f 196//190 195//196 202//199 203//201
f 192//192 199//200 200//202 193//193
f 196//190 203//201 204//203 197//191
f 194//194 193//193 200//202 201//198
f 198//195 197//191 204//203 205//197
f 200//202 199//200 206//204 207//205
f 204//203 203//201 210//206 211//207
f 201//198 200//202 207//205 208//208
f 205//197 204//203 211//207 212//209
f 201//198 208//208 209//210 202//199
f 205//197 212//209 1//13
f 199//200 121//16 206//204
f 203//201 202//199 209//210 210//206
f 209//210 208//208 215//211 216//212
f 206//204 121//16 213//213
f 1//13 212//209 219//214
f 210//206 209//210 216//212 217//215
f 207//205 206//204 213//213 214//216
f 210//206 217//215 218//217 211//207
f 208//208 207//205 214//216 215//211
f 212//209 211//207 218//217 219//214
f 218//217 217//215 224//218 225//219
f 215//211 214//216 221//220 222//221
f 219//214 218//217 225//219 226//222
f 216//212 215//211 222//221 223//223
f 219//214 226//222 1//13
f 213//213 121//16 220//224
f 217//215 216//212 223//223 224//218
f 214//216 213//213 220//224 221//220
f 220//224 121//16 2//225
f 226//222 8//1 1//13
f 224//218 223//223 5//5 6//9
f 221//220 220//224 2//225 3//226
f 225//219 224//218 6//9 7//2
f 222//221 221//220 3//226 4//6
f 226//222 225//219 7//2 8//1
f 222//221 4//6 5//5 223//223
f 4//6 3//226 10//20 11//7
f 3//226 2//225 9//15 10//20
f 2//225 121//16 9//15
f 1//13 8//1 15//4
