# Blender v2.79 (sub 0) OBJ File: 'Pillow.blend'
# www.blender.org
mtllib Pillow.mtl
o Pillow
v -0.782263 -0.100793 0.739149
v -0.773782 -0.095315 0.831597
v -0.782263 0.100793 0.739149
v -0.773782 0.095315 0.831597
v 0.984592 0.032595 0.741428
v 0.961805 0.032139 0.840712
v 0.992187 0.009310 0.742188
v 0.968750 0.009310 0.843750
v -0.782263 0.042251 0.961805
v -0.785090 0.012239 0.968750
v -0.984592 0.032595 -0.741428
v -0.961805 0.032139 -0.840712
v -0.992187 0.009310 -0.742188
v -0.968750 0.009310 -0.843750
v -0.782262 -0.042251 -0.961806
v -0.785089 -0.012239 -0.968750
v 0.782263 -0.042251 -0.961805
v 0.785090 -0.012239 -0.968750
v 0.356213 -0.078159 -0.992188
v 0.356213 -0.022219 -1.000000
v -0.356213 -0.078159 -0.992188
v -0.356213 -0.022219 -1.000000
v 0.782262 0.042251 0.961806
v 0.785089 0.012239 0.968750
v 0.356213 0.078159 0.992188
v 0.356213 0.022220 1.000000
v -0.356214 0.078159 0.992188
v -0.356214 0.022220 1.000000
v 0.782262 0.100793 0.739150
v 0.773781 0.095315 0.831598
v 0.356213 0.197495 0.742188
v 0.356213 0.186307 0.843750
v -0.356214 0.197495 0.742188
v -0.356214 0.186307 0.843750
v 0.782263 -0.100793 0.739149
v 0.773782 -0.095315 0.831597
v 0.356213 -0.197495 0.742187
v 0.356213 -0.186307 0.843750
v -0.356213 -0.197495 0.742187
v -0.356213 -0.186307 0.843750
v -0.356213 -0.197495 -0.742188
v -0.356213 -0.186307 -0.843750
v 0.356213 -0.197495 -0.742188
v 0.356213 -0.186307 -0.843750
v 0.782263 -0.100793 -0.739149
v 0.773782 -0.095315 -0.831597
v -0.356213 0.197495 -0.742187
v -0.356213 0.186307 -0.843750
v 0.356213 0.197495 -0.742187
v 0.356214 0.186307 -0.843750
v 0.782263 0.100793 -0.739149
v 0.773782 0.095315 -0.831597
v -0.984592 0.032595 0.741428
v -0.961806 0.032139 0.840712
v -0.992188 0.009310 0.742187
v -0.968750 0.009310 0.843750
v 0.984592 0.032595 -0.741428
v 0.961806 0.032139 -0.840711
v 0.992188 0.009310 -0.742187
v 0.968750 0.009310 -0.843750
v -0.782263 0.100793 -0.739149
v -0.773782 0.095315 -0.831597
v -0.782262 -0.100793 -0.739150
v -0.773781 -0.095315 -0.831598
v 0.984592 -0.032595 -0.741428
v 0.961806 -0.032139 -0.840712
v 0.992188 -0.009310 -0.742187
v 0.968750 -0.009310 -0.843750
v -0.984592 -0.032595 0.741428
v -0.961806 -0.032139 0.840712
v -0.992188 -0.009310 0.742187
v -0.968750 -0.009310 0.843750
v -0.356213 -0.078159 0.992187
v -0.356214 -0.022219 1.000000
v 0.356213 -0.078159 0.992188
v 0.356213 -0.022219 1.000000
v 0.782262 -0.042251 0.961806
v 0.785089 -0.012239 0.968750
v -0.356213 0.078159 -0.992187
v -0.356213 0.022220 -1.000000
v 0.356214 0.078159 -0.992187
v 0.356214 0.022220 -1.000000
v 0.782263 0.042251 -0.961805
v 0.785090 0.012239 -0.968750
v -0.782262 0.042251 -0.961806
v -0.785089 0.012239 -0.968750
v -0.984592 -0.032595 -0.741428
v -0.992187 -0.009310 -0.742188
v -0.961805 -0.032139 -0.840712
v -0.968750 -0.009310 -0.843750
v -0.782263 -0.042251 0.961805
v -0.785090 -0.012239 0.968750
v 0.984592 -0.032595 0.741428
v 0.992187 -0.009310 0.742188
v 0.961805 -0.032139 0.840712
v 0.968750 -0.009310 0.843750
v 0.916341 -0.067578 0.737630
v 0.899740 -0.064258 0.825521
v -0.768128 -0.084474 -0.899740
v 0.921875 0.009310 -0.921875
v 0.916341 0.031836 -0.916341
v -0.768128 -0.084474 0.899739
v 0.921875 0.009310 0.921875
v 0.916341 0.031836 0.916342
v -0.916341 -0.067578 -0.737631
v -0.899739 -0.064258 -0.825521
v -0.921875 0.009310 0.921875
v -0.916341 0.031836 0.916341
v -0.921875 0.009310 -0.921875
v -0.916341 0.031836 -0.916341
v 0.916341 0.067578 0.737631
v 0.899739 0.064258 0.825521
v -0.768128 0.084474 -0.899740
v -0.768128 0.084474 0.899739
v -0.916341 0.067578 -0.737630
v -0.899740 0.064258 -0.825521
v 0.768128 -0.084474 -0.899740
v 0.356213 -0.163932 -0.921875
v -0.356213 -0.163932 -0.921875
v 0.768128 -0.084474 0.899740
v 0.356213 -0.163932 0.921875
v -0.356213 -0.163932 0.921875
v 0.768128 0.084474 -0.899739
v 0.356214 0.163932 -0.921875
v -0.356213 0.163932 -0.921875
v 0.768127 0.084474 0.899740
v 0.356212 0.163932 0.921875
v -0.356214 0.163932 0.921875
v 0.000000 0.025459 -1.000000
v 0.000000 0.089553 -0.992187
v -0.000000 -0.025459 1.000000
v -0.000000 -0.089553 0.992188
v -0.000000 0.226288 0.742188
v -0.000000 0.213469 0.843750
v 0.000000 -0.226288 -0.742188
v 0.000000 -0.213469 -0.843750
v 0.899740 -0.064258 -0.825521
v 0.916341 -0.067578 -0.737630
v -0.899740 -0.064258 0.825521
v -0.916341 -0.067578 0.737630
v 0.899740 0.064258 -0.825520
v 0.916341 0.067578 -0.737630
v -0.899740 0.064258 0.825521
v -0.916341 0.067578 0.737630
v 0.000000 0.213469 -0.843750
v 0.000000 0.226288 -0.742187
v -0.000000 -0.213469 0.843750
v -0.000000 -0.226288 0.742187
v -0.356213 -0.201224 -0.000000
v 0.356213 -0.201224 -0.000000
v 0.785089 -0.102619 0.000000
v -0.356213 0.201224 0.000000
v 0.356213 0.201224 0.000000
v 0.785089 0.102619 0.000000
v -1.000000 -0.009310 -0.000000
v -0.992188 -0.032747 -0.000000
v 1.000000 -0.009310 0.000000
v 0.992188 -0.032747 0.000000
v -0.785090 0.102619 -0.000000
v -0.785089 -0.102619 -0.000000
v 0.916341 -0.031836 -0.916341
v 0.921875 -0.009310 -0.921875
v 0.916341 -0.031836 0.916341
v 0.921875 -0.009310 0.921875
v -0.916341 -0.031836 0.916341
v -0.921875 -0.009310 0.921875
v -0.916341 -0.031836 -0.916341
v -0.921875 -0.009310 -0.921875
v 0.000000 -0.089553 -0.992188
v 0.000000 -0.025459 -1.000000
v -0.000000 0.089553 0.992188
v -0.000000 0.025459 1.000000
v -0.992188 0.032747 -0.000000
v -1.000000 0.009310 -0.000000
v 0.992188 0.032747 0.000000
v 1.000000 0.009310 0.000000
v 0.964516 0.000000 -0.840062
v 0.987852 0.000000 -0.738944
v -0.964516 0.000000 0.840062
v -0.987852 0.000000 0.738944
v -0.354657 -0.000000 0.995630
v 0.354656 -0.000000 0.995630
v 0.781658 -0.000000 0.964516
v -0.354656 -0.000000 -0.995630
v 0.354657 -0.000000 -0.995629
v 0.781659 -0.000000 -0.964516
v -0.781658 -0.000000 -0.964516
v -0.987851 0.000000 -0.738944
v -0.964516 0.000000 -0.840063
v -0.781659 -0.000000 0.964516
v 0.987851 0.000000 0.738944
v 0.964516 0.000000 0.840063
v 0.877315 -0.059773 -0.877315
v 0.877315 -0.059773 0.877315
v -0.877315 -0.059773 0.877315
v -0.877315 -0.059773 -0.877315
v 0.877315 0.059773 -0.877314
v 0.877314 0.059773 0.877315
v -0.877315 0.059773 0.877315
v -0.877315 0.059773 -0.877315
v 0.000000 -0.187831 -0.921875
v -0.000000 -0.187831 0.921875
v 0.000000 0.187831 -0.921875
v -0.000000 0.187831 0.921875
v 0.921875 -0.068685 0.000000
v -0.921875 -0.068685 -0.000000
v 0.921875 0.068685 0.000000
v -0.921875 0.068685 -0.000000
v -0.000000 0.230561 0.000000
v 0.000000 -0.230561 -0.000000
v 0.917846 0.000000 -0.917846
v 0.917846 0.000000 0.917846
v -0.917846 0.000000 0.917846
v -0.917846 0.000000 -0.917846
v 0.000000 -0.000000 -0.995630
v -0.000000 -0.000000 0.995630
v -0.995630 0.000000 -0.000000
v 0.995630 0.000000 0.000000
vn -0.3525 -0.9344 0.0499
vn -0.3508 -0.9364 0.0000
vn -0.2317 -0.9728 0.0000
vn -0.2311 -0.9719 0.0452
vn -0.1154 -0.8457 0.5211
vn -0.2120 -0.8860 0.4124
vn -0.2285 -0.9627 0.1446
vn -0.1425 -0.9727 0.1832
vn -0.2285 0.9627 0.1446
vn -0.2120 0.8860 0.4124
vn -0.1154 0.8457 0.5211
vn -0.1425 0.9727 0.1832
vn -0.3387 -0.9286 0.1517
vn -0.2311 0.9719 0.0452
vn -0.1501 0.9871 0.0551
vn -0.2977 -0.9062 0.3002
vn -0.3508 0.9364 0.0000
vn -0.3525 0.9344 -0.0499
vn -0.7635 0.6391 -0.0924
vn -0.7605 0.6493 0.0000
vn -0.7173 0.6335 0.2899
vn -0.3387 0.9286 0.1517
vn -0.3525 0.9344 0.0499
vn -0.7635 0.6391 0.0924
vn -0.1501 -0.9871 -0.0551
vn -0.2311 -0.9719 -0.0452
vn -0.2285 -0.9627 -0.1446
vn -0.1425 -0.9727 -0.1832
vn 0.9982 -0.0599 0.0000
vn 0.9893 -0.0739 0.1258
vn 0.9950 0.0000 0.1002
vn 1.0000 0.0000 0.0000
vn -0.2977 0.9062 0.3002
vn 0.3508 -0.9364 0.0000
vn 0.3525 -0.9344 0.0499
vn 0.2311 -0.9719 0.0452
vn 0.2317 -0.9728 0.0000
vn 0.5154 0.5945 0.6171
vn 0.2977 0.9062 0.3002
vn 0.2120 0.8860 0.4124
vn 0.2103 0.5260 0.8241
vn 0.7605 0.6493 0.0000
vn 0.7635 0.6391 0.0924
vn 0.7605 -0.6493 0.0000
vn 0.3525 -0.9344 -0.0499
vn 0.7635 -0.6391 -0.0924
vn -0.9982 -0.0599 0.0000
vn -0.9893 -0.0739 -0.1258
vn -0.9950 0.0000 -0.1002
vn -1.0000 0.0000 0.0000
vn 0.7173 0.6335 0.2899
vn 0.3387 0.9286 0.1517
vn -0.2103 0.5260 0.8241
vn -0.5154 0.5945 0.6171
vn 0.9200 -0.0952 0.3800
vn 0.9340 0.0000 0.3573
vn 0.6313 -0.0953 0.7696
vn 0.6113 0.0000 0.7913
vn -0.2094 -0.0663 0.9756
vn -0.1773 0.0000 0.9841
vn -0.0328 0.0000 0.9995
vn -0.0387 -0.0328 0.9987
vn 0.0000 -0.8249 -0.5653
vn 0.0000 -0.3855 -0.9227
vn 0.0664 -0.4274 -0.9016
vn 0.1154 -0.8457 -0.5211
vn -0.3387 0.9286 -0.1517
vn -0.7173 0.6335 -0.2899
vn -0.0664 0.4274 0.9016
vn -0.6313 -0.0953 0.7696
vn -0.6113 0.0000 0.7913
vn 0.3508 0.9364 0.0000
vn 0.3525 0.9344 0.0499
vn 0.7173 0.6335 -0.2899
vn 0.3387 0.9286 -0.1517
vn 0.3525 0.9344 -0.0499
vn 0.7635 0.6391 -0.0924
vn 0.2317 0.9728 0.0000
vn 0.2311 0.9719 0.0452
vn -0.2977 0.9062 -0.3002
vn -0.5154 0.5945 -0.6171
vn -0.2103 -0.5260 -0.8241
vn -0.2120 -0.8860 -0.4124
vn -0.2977 -0.9062 -0.3002
vn -0.5154 -0.5945 -0.6171
vn -0.9200 -0.0952 -0.3800
vn -0.9340 0.0000 -0.3573
vn -0.6313 -0.0953 -0.7696
vn -0.6113 0.0000 -0.7913
vn 0.2094 -0.0663 0.9756
vn 0.0664 0.4274 0.9016
vn 0.0387 -0.0328 0.9987
vn -0.2094 0.0663 -0.9756
vn -0.1773 0.0000 -0.9841
vn -0.0328 0.0000 -0.9995
vn -0.0387 0.0328 -0.9987
vn 0.2094 0.0663 -0.9756
vn 0.0387 0.0328 -0.9987
vn 0.0328 0.0000 -0.9995
vn 0.1773 0.0000 -0.9841
vn 0.2977 -0.9062 -0.3002
vn 0.2120 -0.8860 -0.4124
vn 0.2103 -0.5260 -0.8241
vn 0.5154 -0.5945 -0.6171
vn -0.0664 -0.4274 -0.9016
vn -0.6313 0.0953 -0.7696
vn 0.6313 0.0953 -0.7696
vn 0.1154 0.8457 0.5211
vn 0.0000 0.8249 0.5653
vn 0.0000 0.3855 0.9227
vn 0.6113 0.0000 -0.7913
vn 0.1773 0.0000 0.9841
vn 0.0328 0.0000 0.9995
vn -0.1154 -0.8457 -0.5211
vn 0.0000 0.0250 -0.9997
vn 0.0000 0.0000 -1.0000
vn 0.2285 0.9627 0.1446
vn 0.1501 0.9871 0.0551
vn 0.1425 0.9727 0.1832
vn 0.0000 -0.0250 0.9997
vn 0.0000 0.0000 1.0000
vn 0.1524 0.9883 0.0000
vn -0.9950 0.0000 0.1002
vn -0.9982 0.0599 0.0000
vn -0.9893 0.0739 0.1258
vn 0.1501 -0.9871 0.0551
vn 0.2285 -0.9627 0.1446
vn 0.1425 -0.9727 0.1832
vn -0.1524 -0.9883 0.0000
vn -0.1501 -0.9871 0.0551
vn -0.1501 0.9871 -0.0551
vn -0.1524 0.9883 0.0000
vn 0.0000 1.0000 0.0000
vn 0.0000 0.9981 -0.0613
vn 0.0000 0.9981 0.0613
vn 0.0000 0.9786 0.2055
vn 0.1501 0.9871 -0.0551
vn 0.2311 0.9719 -0.0452
vn 0.2285 0.9627 -0.1446
vn 0.1425 0.9727 -0.1832
vn 0.0000 -0.9786 0.2055
vn 0.0000 -0.9981 0.0613
vn 0.2285 -0.9627 -0.1446
vn 0.1425 -0.9727 -0.1832
vn 0.2120 -0.8860 0.4124
vn 0.1154 -0.8457 0.5211
vn 0.2311 -0.9719 -0.0452
vn 0.1501 -0.9871 -0.0551
vn 0.3387 -0.9286 0.1517
vn 0.2977 -0.9062 0.3002
vn 0.0000 -1.0000 0.0000
vn 0.0000 -0.9981 -0.0613
vn 0.1524 -0.9883 0.0000
vn 0.2103 -0.5260 0.8241
vn 0.2094 0.0663 0.9756
vn 0.0387 0.0328 0.9987
vn 0.0664 -0.4274 0.9016
vn 0.0000 -0.8249 0.5653
vn 0.0000 -0.9786 -0.2055
vn -0.2317 0.9728 0.0000
vn 0.0000 0.9786 -0.2055
vn -0.1425 0.9727 -0.1832
vn 0.3387 -0.9286 -0.1517
vn 0.0000 0.8249 -0.5653
vn -0.1154 0.8457 -0.5211
vn -0.2120 0.8860 -0.4124
vn -0.2285 0.9627 -0.1446
vn 0.2120 0.8860 -0.4124
vn 0.1154 0.8457 -0.5211
vn 0.0000 -0.3855 0.9227
vn -0.2311 0.9719 -0.0452
vn 0.2977 0.9062 -0.3002
vn -0.9893 -0.0739 0.1258
vn -0.9200 -0.0952 0.3800
vn -0.9340 0.0000 0.3573
vn 0.9893 -0.0739 -0.1258
vn 0.9200 -0.0952 -0.3800
vn 0.6313 -0.0953 -0.7696
vn 0.5154 0.5945 -0.6171
vn 0.9950 0.0000 -0.1002
vn 0.9340 0.0000 -0.3573
vn -0.3525 -0.9344 -0.0499
vn 0.7173 -0.6335 -0.2899
vn -0.3387 -0.9286 -0.1517
vn -0.7605 -0.6493 0.0000
vn -0.7635 -0.6391 0.0924
vn 0.9200 0.0952 -0.3800
vn 0.9893 0.0739 -0.1258
vn 0.9982 0.0599 0.0000
vn 0.9893 0.0739 0.1258
vn -0.7173 -0.6335 0.2899
vn -0.5154 -0.5945 0.6171
vn -0.0664 -0.4274 0.9016
vn -0.9200 0.0952 0.3800
vn -0.6313 0.0953 0.7696
vn -0.9893 0.0739 -0.1258
vn -0.7173 -0.6335 -0.2899
vn -0.7635 -0.6391 -0.0924
vn 0.0000 0.0250 0.9997
vn -0.0387 0.0328 0.9987
vn -0.2094 0.0663 0.9756
vn 0.2103 0.5260 -0.8241
vn 0.2094 -0.0663 -0.9756
vn 0.0387 -0.0328 -0.9987
vn 0.0664 0.4274 -0.9016
vn -0.2103 -0.5260 0.8241
vn 0.5154 -0.5945 0.6171
vn 0.0000 0.3855 -0.9227
vn -0.0664 0.4274 -0.9016
vn 0.6313 0.0953 0.7696
vn 0.0000 -0.0250 -0.9997
vn -0.0387 -0.0328 -0.9987
vn -0.2094 -0.0663 -0.9756
vn -0.2103 0.5260 -0.8241
vn 0.7173 -0.6335 0.2899
vn 0.7635 -0.6391 0.0924
vn -0.9200 0.0952 -0.3800
vn 0.9200 0.0952 0.3800
usemtl None
s 1
f 140//1 206//2 160//3 1//4
f 122//5 102//6 2//7 40//8
f 4//9 114//10 128//11 34//12
f 1//4 2//7 139//13 140//1
f 3//14 4//9 34//12 33//15
f 2//7 102//6 195//16 139//13
f 208//17 115//18 11//19 173//20
f 54//21 143//22 144//23 53//24
f 41//25 63//26 64//27 42//28
f 176//29 7//30 191//31 218//32
f 3//14 144//23 143//22 4//9
f 4//9 143//22 199//33 114//10
f 205//34 97//35 35//36 151//37
f 104//38 198//39 126//40 23//41
f 175//42 5//43 7//30 176//29
f 158//44 205//34 138//45 65//46
f 174//47 13//48 188//49 217//50
f 6//51 112//52 198//39 104//38
f 9//53 114//10 199//33 108//54
f 5//43 6//51 8//55 7//30
f 7//30 8//55 192//56 191//31
f 6//51 104//38 103//57 8//55
f 8//55 103//57 212//58 192//56
f 10//59 190//60 181//61 28//62
f 201//63 169//64 19//65 118//66
f 11//19 115//18 116//67 12//68
f 9//53 10//59 28//62 27//69
f 9//53 108//54 107//70 10//59
f 10//59 107//70 213//71 190//60
f 207//72 111//73 5//43 175//42
f 173//20 11//19 13//48 174//47
f 58//74 141//75 142//76 57//77
f 154//78 29//79 111//73 207//72
f 12//68 116//67 200//80 110//81
f 15//82 99//83 196//84 167//85
f 11//19 12//68 14//86 13//48
f 13//48 14//86 189//87 188//49
f 12//68 110//81 109//88 14//86
f 14//86 109//88 214//89 189//87
f 24//90 23//41 25//91 26//92
f 16//93 187//94 184//95 22//96
f 18//97 20//98 185//99 186//100
f 193//101 117//102 17//103 161//104
f 15//82 16//93 22//96 21//105
f 15//82 167//85 168//106 16//93
f 16//93 168//106 214//89 187//94
f 17//103 18//97 162//107 161//104
f 127//108 204//109 171//110 25//91
f 18//97 186//100 211//111 162//107
f 18//97 17//103 19//65 20//98
f 17//103 117//102 118//66 19//65
f 183//112 24//90 26//92 182//113
f 201//63 119//114 21//105 169//64
f 19//65 169//64 170//115 20//98
f 20//98 170//115 215//116 185//99
f 22//96 170//115 169//64 21//105
f 215//116 170//115 22//96 184//95
f 119//114 99//83 15//82 21//105
f 204//109 128//11 27//69 171//110
f 30//117 29//79 31//118 32//119
f 23//41 24//90 103//57 104//38
f 24//90 183//112 212//58 103//57
f 23//41 126//40 127//108 25//91
f 126//40 30//117 32//119 127//108
f 25//91 171//110 172//120 26//92
f 26//92 172//120 216//121 182//113
f 28//62 172//120 171//110 27//69
f 216//121 172//120 28//62 181//61
f 128//11 114//10 9//53 27//69
f 29//79 154//78 153//122 31//118
f 180//123 217//50 155//124 71//125
f 37//126 35//36 36//127 38//128
f 149//129 39//130 1//4 160//3
f 47//131 152//132 209//133 146//134
f 29//79 30//117 112//52 111//73
f 30//117 126//40 198//39 112//52
f 31//118 133//135 134//136 32//119
f 34//12 134//136 133//135 33//15
f 32//119 134//136 204//109 127//108
f 146//134 209//133 153//122 49//137
f 49//137 51//138 52//139 50//140
f 204//109 134//136 34//12 128//11
f 38//128 147//141 148//142 37//126
f 117//102 46//143 44//144 118//66
f 38//128 36//127 120//145 121//146
f 46//143 45//147 43//148 44//144
f 35//36 97//35 98//149 36//127
f 36//127 98//149 194//150 120//145
f 210//151 135//152 43//148 150//153
f 77//154 78//155 76//156 75//157
f 121//146 202//158 147//141 38//128
f 138//45 205//34 151//37 45//147
f 39//130 148//142 147//141 40//8
f 42//28 64//27 99//83 119//114
f 40//8 147//141 202//158 122//5
f 42//28 136//159 135//152 41//25
f 201//63 136//159 42//28 119//114
f 210//151 148//142 39//130 149//129
f 149//129 160//3 63//26 41//25
f 153//122 154//78 51//138 49//137
f 148//142 210//151 150//153 37//126
f 45//147 151//37 150//153 43//148
f 43//148 135//152 136//159 44//144
f 151//37 35//36 37//126 150//153
f 44//144 136//159 201//63 118//66
f 3//14 159//160 208//17 144//23
f 47//131 146//134 145//161 48//162
f 45//147 46//143 137//163 138//45
f 46//143 117//102 193//101 137//163
f 48//162 145//161 203//164 125//165
f 133//135 209//133 152//132 33//15
f 113//166 62//167 48//162 125//165
f 50//140 145//161 146//134 49//137
f 52//139 123//168 124//169 50//140
f 124//169 203//164 145//161 50//140
f 209//133 133//135 31//118 153//122
f 132//170 202//158 121//146 75//157
f 61//171 159//160 152//132 47//131
f 51//138 142//76 141//75 52//139
f 52//139 141//75 197//172 123//168
f 51//138 154//78 207//72 142//76
f 48//162 62//167 61//171 47//131
f 53//24 173//20 174//47 55//173
f 53//24 55//173 56//174 54//21
f 54//21 56//174 107//70 108//54
f 55//173 180//123 179//175 56//174
f 56//174 179//175 213//71 107//70
f 108//54 199//33 143//22 54//21
f 53//24 144//23 208//17 173//20
f 55//173 174//47 217//50 180//123
f 57//77 175//42 176//29 59//176
f 57//77 59//176 60//177 58//74
f 58//74 60//177 100//178 101//179
f 59//176 178//180 177//181 60//177
f 60//177 177//181 211//111 100//178
f 101//179 197//172 141//75 58//74
f 57//77 142//76 207//72 175//42
f 59//176 176//29 218//32 178//180
f 159//160 3//14 33//15 152//132
f 61//171 62//167 116//67 115//18
f 62//167 113//166 200//80 116//67
f 206//2 105//182 63//26 160//3
f 65//46 138//45 137//163 66//183
f 63//26 105//182 106//184 64//27
f 64//27 106//184 196//84 99//83
f 66//183 137//163 193//101 161//104
f 156//185 206//2 140//1 69//186
f 65//46 66//183 68//187 67//188
f 67//188 68//187 177//181 178//180
f 66//183 161//104 162//107 68//187
f 68//187 162//107 211//111 177//181
f 65//46 67//188 157//189 158//44
f 218//32 191//31 94//190 157//189
f 69//186 140//1 139//13 70//191
f 210//151 149//129 41//25 135//152
f 70//191 139//13 195//16 165//192
f 202//158 132//170 73//193 122//5
f 69//186 70//191 72//194 71//125
f 71//125 72//194 179//175 180//123
f 70//191 165//192 166//195 72//194
f 72//194 166//195 213//71 179//175
f 69//186 71//125 155//124 156//185
f 217//50 188//49 88//196 155//124
f 89//197 106//184 105//182 87//198
f 73//193 132//170 131//199 74//200
f 74//200 131//199 216//121 181//61
f 76//156 131//199 132//170 75//157
f 181//61 190//60 92//201 74//200
f 5//43 111//73 112//52 6//51
f 83//202 84//203 82//204 81//205
f 195//16 102//6 91//206 165//192
f 183//112 182//113 76//156 78//155
f 182//113 216//121 131//199 76//156
f 77//154 120//145 194//150 163//207
f 130//208 203//164 124//169 81//205
f 120//145 77//154 75//157 121//146
f 203//164 130//208 79//209 125//165
f 77//154 163//207 164//210 78//155
f 78//155 164//210 212//58 183//112
f 79//209 130//208 129//211 80//212
f 80//212 129//211 215//116 184//95
f 82//204 129//211 130//208 81//205
f 184//95 187//94 86//213 80//212
f 74//200 92//201 91//206 73//193
f 80//212 86//213 85//214 79//209
f 110//81 200//80 113//166 85//214
f 186//100 185//99 82//204 84//203
f 185//99 215//116 129//211 82//204
f 83//202 123//168 197//172 101//179
f 123//168 83//202 81//205 124//169
f 85//214 113//166 125//165 79//209
f 83//202 101//179 100//178 84//203
f 84//203 100//178 211//111 186//100
f 85//214 86//213 109//88 110//81
f 86//213 187//94 214//89 109//88
f 156//185 87//198 105//182 206//2
f 178//180 218//32 157//189 67//188
f 156//185 155//124 88//196 87//198
f 95//215 98//149 97//35 93//216
f 87//198 88//196 90//217 89//197
f 89//197 90//217 168//106 167//85
f 88//196 188//49 189//87 90//217
f 90//217 189//87 214//89 168//106
f 196//84 106//184 89//197 167//85
f 91//206 102//6 122//5 73//193
f 91//206 92//201 166//195 165//192
f 92//201 190//60 213//71 166//195
f 158//44 93//216 97//35 205//34
f 208//17 159//160 61//171 115//18
f 158//44 157//189 94//190 93//216
f 93//216 94//190 96//218 95//215
f 95//215 96//218 164//210 163//207
f 94//190 191//31 192//56 96//218
f 96//218 192//56 212//58 164//210
f 194//150 98//149 95//215 163//207
f 2//7 1//4 39//130 40//8
